<?xml version="1.0" standalone="no"?>
<!DOCTYPE svg PUBLIC "-//W3C//DTD SVG 20010904//EN"
 "http://www.w3.org/TR/2001/REC-SVG-20010904/DTD/svg10.dtd">
<svg version="1.0" xmlns="http://www.w3.org/2000/svg"
 width="638.000000pt" height="596.000000pt" viewBox="0 0 638.000000 596.000000"
 preserveAspectRatio="xMidYMid meet">

<g transform="translate(0.000000,596.000000) scale(0.100000,-0.100000)"
fill="#000000" stroke="none">
<path d="M4555 5926 c-27 -13 -63 -36 -80 -52 -16 -15 -44 -35 -61 -44 -40
-21 -125 -91 -186 -153 -64 -66 -109 -159 -118 -245 -4 -37 -14 -86 -22 -109
-13 -36 -13 -41 0 -36 11 5 13 1 7 -16 -3 -11 -8 -32 -9 -46 -2 -14 -6 -28 -9
-32 -10 -10 -8 -25 2 -19 5 4 7 -2 4 -12 -3 -14 4 -22 24 -31 26 -11 29 -16
29 -64 2 -99 15 -195 29 -201 7 -2 15 -15 18 -28 2 -13 5 -4 7 22 1 25 4 37 7
28 7 -28 21 -21 28 13 5 21 10 27 15 19 9 -14 15 -6 24 32 4 19 11 26 21 22
10 -4 15 0 15 11 0 9 4 14 10 10 5 -3 16 8 25 25 8 16 20 30 26 30 6 0 9 7 5
15 -3 8 -1 15 3 15 5 0 12 -7 15 -16 8 -22 8 -26 -4 -19 -15 9 -12 -11 4 -24
11 -9 15 -9 19 1 3 8 22 -4 54 -34 27 -27 53 -48 58 -48 4 0 17 -7 27 -17 17
-15 18 -15 18 0 0 22 8 21 34 0 12 -10 8 -3 -8 15 -17 17 -25 32 -19 32 17 0
65 -49 58 -60 -3 -6 1 -10 11 -10 14 0 15 2 3 16 -15 18 -19 18 71 -2 48 -10
144 -11 160 -2 11 7 32 7 63 0 37 -8 47 -7 47 4 0 8 10 12 28 10 15 -2 60 -7
100 -11 39 -4 72 -11 72 -16 0 -4 6 -6 14 -3 11 4 13 -5 9 -43 -8 -84 -10 -90
-55 -108 -67 -27 -238 -54 -420 -67 -149 -11 -178 -10 -256 5 -151 29 -161 34
-188 103 -14 32 -30 70 -36 84 l-11 25 -8 -29 c-6 -21 1 -58 27 -145 37 -120
51 -152 39 -90 -9 51 10 65 72 50 100 -23 243 -31 382 -21 210 15 317 30 378
51 77 26 86 25 79 -8 -4 -24 -3 -23 11 7 13 27 16 70 17 199 1 118 3 152 9
120 21 -112 23 -112 36 16 l8 80 3 -60 2 -60 13 54 c14 55 14 128 0 171 -4 14
-3 20 3 17 22 -14 23 163 1 221 -14 35 -3 39 16 5 15 -26 15 -27 9 -3 -25 100
-94 198 -178 254 -29 19 -56 41 -59 48 -8 21 -111 78 -188 104 -100 34 -205
47 -271 35 -29 -5 -54 -8 -56 -6 -1 1 17 12 40 23 42 21 42 21 13 21 -16 1
-52 -10 -80 -23z m-443 -778 c-8 -8 -9 -4 -5 13 4 13 8 18 11 10 2 -7 -1 -18
-6 -23z m55 -135 c-3 -10 -5 -4 -5 12 0 17 2 24 5 18 2 -7 2 -21 0 -30z m1032
-51 c17 -27 31 -55 31 -63 -1 -8 -12 7 -25 33 -14 26 -29 49 -35 53 -10 6 -14
25 -6 25 2 0 18 -22 35 -48z m-952 16 c-3 -8 -6 -5 -6 6 -1 11 2 17 5 13 3 -3
4 -12 1 -19z m-80 -70 c-2 -18 -4 -6 -4 27 0 33 2 48 4 33 2 -15 2 -42 0 -60z
m40 30 c-2 -13 -4 -5 -4 17 -1 22 1 32 4 23 2 -10 2 -28 0 -40z m963 -3 c14
-8 21 -14 15 -14 -5 0 -21 6 -35 14 -14 8 -20 14 -15 14 6 0 21 -6 35 -14z"/>
<path d="M2749 5718 c0 -2 -6 -43 -12 -93 l-12 -89 -32 -7 c-44 -9 -63 -26
-85 -77 -30 -67 -27 -118 10 -155 28 -28 38 -31 100 -33 l68 -2 1 229 c1 219
1 229 -18 229 -10 0 -19 -1 -20 -2z m-19 -303 c0 -32 -7 -51 -24 -72 -24 -27
-24 -28 -45 -9 -25 23 -26 44 -6 93 19 45 33 55 57 42 13 -7 18 -22 18 -54z"/>
<path d="M553 5665 c-19 -8 -35 -23 -38 -37 -3 -13 -4 -95 -3 -182 3 -137 5
-160 20 -170 23 -14 30 -4 36 54 4 47 6 50 41 60 20 5 47 10 60 10 32 0 107
49 120 78 16 34 13 99 -5 128 -25 38 -51 48 -85 34 -30 -13 -39 -30 -15 -30
23 0 65 -57 59 -80 -8 -32 -63 -67 -115 -75 -44 -7 -47 -6 -53 17 -3 13 -5 48
-3 78 3 52 4 54 38 63 34 8 80 42 80 59 0 13 -102 8 -137 -7z"/>
<path d="M2279 5648 c-16 -18 -33 -45 -36 -60 -4 -19 -12 -28 -24 -28 -10 0
-25 12 -34 28 -8 15 -26 40 -39 56 -22 27 -26 28 -40 13 -9 -8 -16 -19 -16
-22 0 -4 20 -38 45 -75 44 -67 44 -67 51 -178 7 -109 8 -112 31 -112 23 0 23
1 23 105 0 121 9 149 69 217 46 52 49 63 21 78 -17 9 -25 6 -51 -22z"/>
<path d="M1097 5623 c-11 -10 -8 -41 4 -49 16 -9 43 21 36 40 -7 16 -28 21
-40 9z"/>
<path d="M1770 5552 c-60 -27 -80 -62 -80 -141 0 -52 4 -65 28 -91 19 -22 39
-33 67 -36 51 -7 98 10 93 34 -3 14 -13 16 -51 14 -39 -3 -51 1 -73 23 -14 14
-24 31 -22 37 3 7 28 17 57 24 96 21 119 81 48 124 -34 21 -43 23 -67 12z m48
-54 c4 -20 -30 -41 -60 -36 -20 3 -20 3 2 31 24 30 53 32 58 5z"/>
<path d="M1276 5535 c-22 -12 -31 -13 -37 -4 -4 7 -14 9 -22 6 -19 -7 -34
-216 -17 -247 24 -45 50 -3 50 83 0 61 29 117 60 117 18 0 20 -7 20 -67 0 -81
28 -153 58 -153 28 0 36 29 15 53 -14 15 -18 37 -18 103 0 90 -8 108 -55 119
-14 3 -38 -1 -54 -10z"/>
<path d="M3100 5535 c-13 -16 -6 -81 15 -130 7 -16 16 -46 19 -66 9 -54 28
-74 54 -60 29 15 53 66 82 169 17 61 20 86 12 94 -14 14 -42 -7 -40 -30 3 -21
-51 -142 -63 -142 -13 0 -21 20 -24 59 -4 50 -24 121 -34 121 -5 0 -14 -7 -21
-15z"/>
<path d="M947 5529 c-10 -6 -35 -8 -57 -4 l-38 7 -4 -89 c-2 -48 -1 -109 0
-135 4 -43 6 -48 28 -48 23 0 24 3 24 65 0 107 41 170 106 163 21 -2 29 2 32
16 7 33 -50 49 -91 25z"/>
<path d="M1496 5516 c-26 -20 -30 -31 -34 -84 -5 -75 2 -105 30 -132 31 -29
98 -27 126 3 42 45 13 90 -32 48 -28 -26 -52 -27 -66 -2 -15 29 -12 94 6 119
14 20 21 22 60 16 38 -5 44 -4 44 11 0 47 -86 60 -134 21z"/>
<path d="M2377 5522 c-25 -27 -5 -42 41 -31 30 7 40 5 50 -8 20 -28 14 -43
-18 -43 -32 0 -98 -31 -112 -52 -14 -23 -8 -65 13 -92 24 -30 64 -34 108 -12
25 13 31 13 50 0 11 -8 26 -12 31 -9 15 9 12 42 -5 49 -12 4 -15 23 -15 85 0
76 -1 80 -31 105 -36 31 -88 35 -112 8z m87 -137 c8 -23 -4 -44 -35 -60 -24
-13 -30 -13 -43 1 -21 20 -20 23 6 51 24 26 63 30 72 8z"/>
<path d="M2895 5526 c-10 -7 -16 -20 -12 -29 5 -12 13 -14 44 -6 33 7 40 5 55
-14 21 -27 15 -37 -22 -37 -31 0 -87 -26 -107 -50 -34 -41 5 -120 58 -120 17
0 43 7 58 14 25 13 31 13 50 0 11 -8 26 -12 31 -9 15 9 12 41 -5 55 -11 9 -15
33 -15 85 0 69 -2 75 -31 99 -34 29 -75 33 -104 12z m80 -136 c11 -18 -6 -50
-35 -65 -27 -14 -30 -14 -45 8 -15 21 -14 23 10 45 27 23 60 29 70 12z"/>
<path d="M1086 5499 c-3 -17 -6 -60 -6 -94 0 -80 9 -125 25 -125 29 0 34 26
28 138 -5 97 -8 112 -23 112 -12 0 -20 -11 -24 -31z"/>
<path d="M893 4876 l-28 -24 -3 -405 -3 -405 -102 -78 c-56 -43 -105 -83 -109
-89 -11 -15 -9 -1073 2 -1120 5 -24 21 -51 40 -67 l30 -28 836 0 c721 0 839 2
864 15 63 32 60 3 59 635 l0 575 -107 81 -107 80 -3 407 -2 406 -26 20 c-26
21 -35 21 -670 21 l-643 0 -28 -24z m1304 -616 l3 -575 -185 -140 c-102 -77
-191 -139 -199 -139 -7 1 -56 33 -108 73 -88 66 -98 71 -145 71 -48 0 -56 -4
-149 -75 -54 -42 -103 -74 -110 -71 -7 3 -96 69 -198 147 l-186 142 0 558 c0
306 3 565 6 573 6 15 68 16 638 14 l631 -3 2 -575z m-1193 -713 c135 -103 246
-191 245 -195 0 -6 -454 -356 -519 -401 -20 -13 -20 -11 -20 404 l0 417 24
-19 c14 -10 135 -103 270 -206z m1414 -404 l-3 -205 -267 204 c-147 111 -266
207 -264 212 1 6 121 101 267 212 l264 203 3 -210 c1 -116 1 -303 0 -416z
m-518 106 c173 -133 361 -276 417 -318 l102 -76 1 -46 c0 -25 -6 -54 -14 -65
-14 -19 -34 -19 -841 -19 -807 0 -827 0 -841 19 -8 11 -14 40 -14 65 l1 46
147 111 c81 62 268 205 416 318 152 116 279 206 290 206 12 0 157 -104 336
-241z"/>
<path d="M1097 4684 c-4 -4 -7 -56 -7 -116 l0 -108 115 0 116 0 -3 113 -3 112
-106 3 c-58 1 -108 -1 -112 -4z m191 -111 l-3 -78 -82 -3 -83 -3 0 81 0 80 85
0 86 0 -3 -77z"/>
<path d="M1154 4606 c-3 -8 -4 -29 -2 -48 3 -32 5 -33 51 -36 l47 -3 0 50 0
51 -45 0 c-30 0 -47 -5 -51 -14z"/>
<path d="M1420 4670 c0 -11 7 -20 15 -20 8 0 15 -7 15 -15 0 -8 -7 -15 -15
-15 -8 0 -15 -7 -15 -15 0 -8 -9 -15 -20 -15 -11 0 -20 -5 -20 -11 0 -7 -8
-18 -17 -25 -17 -13 -17 -15 0 -28 21 -16 22 -36 2 -36 -8 0 -15 -7 -15 -15 0
-8 7 -15 15 -15 8 0 15 7 15 15 0 8 9 15 20 15 11 0 20 -7 20 -15 0 -8 7 -15
15 -15 8 0 15 7 15 15 0 8 -7 15 -15 15 -11 0 -15 12 -15 50 0 49 1 50 30 50
20 0 30 5 30 15 0 8 6 15 14 15 8 0 16 -7 20 -15 3 -8 12 -15 21 -15 8 0 15
-7 15 -15 0 -10 -10 -15 -29 -15 -36 0 -50 -19 -28 -35 10 -7 17 -17 17 -24 0
-6 9 -11 20 -11 11 0 20 -7 20 -15 0 -8 -7 -15 -15 -15 -9 0 -18 7 -21 15 -4
8 -12 15 -20 15 -8 0 -14 -7 -14 -15 0 -8 -7 -15 -15 -15 -8 0 -15 -7 -15 -15
0 -11 -12 -15 -50 -15 -43 0 -50 -3 -50 -20 0 -11 7 -20 15 -20 10 0 15 -10
15 -30 0 -27 -3 -30 -30 -30 -20 0 -30 5 -30 15 0 8 7 15 15 15 8 0 15 7 15
15 0 8 -7 15 -15 15 -8 0 -15 9 -15 20 0 17 -7 20 -51 20 -43 0 -50 -3 -47
-17 2 -14 15 -19 51 -21 33 -2 47 -7 47 -18 0 -7 -7 -14 -15 -14 -8 0 -15 -7
-15 -15 0 -8 -9 -15 -20 -15 -11 0 -20 7 -20 15 0 8 -7 15 -15 15 -10 0 -15
-10 -15 -30 0 -20 -5 -30 -15 -30 -8 0 -15 -7 -15 -15 0 -8 -9 -15 -20 -15
-11 0 -20 7 -20 15 0 8 -7 15 -15 15 -11 0 -15 12 -15 45 0 33 -4 45 -15 45
-12 0 -15 -19 -15 -110 0 -91 3 -110 15 -110 10 0 15 -11 15 -35 0 -24 -5 -35
-15 -35 -10 0 -15 -10 -15 -30 0 -20 5 -30 15 -30 8 0 15 -7 15 -15 0 -10 11
-15 35 -15 24 0 35 5 35 15 0 8 7 15 15 15 10 0 15 10 15 30 0 20 -5 30 -15
30 -8 0 -15 9 -15 20 0 11 7 20 15 20 8 0 15 7 15 15 0 8 -7 15 -15 15 -8 0
-15 -7 -15 -15 0 -8 -9 -15 -20 -15 -11 0 -20 7 -20 15 0 8 -7 15 -15 15 -10
0 -15 10 -15 30 0 20 5 30 15 30 10 0 15 -10 15 -30 0 -23 4 -30 20 -30 11 0
20 7 20 15 0 10 10 15 30 15 20 0 30 5 30 15 0 10 -10 15 -30 15 -23 0 -30 4
-30 20 0 11 7 20 15 20 8 0 15 7 15 15 0 8 7 15 15 15 8 0 15 -7 15 -15 0 -10
11 -15 35 -15 28 0 35 -4 35 -20 0 -11 -7 -20 -15 -20 -8 0 -15 -7 -15 -15 0
-10 10 -15 30 -15 27 0 30 -3 30 -30 0 -20 5 -30 15 -30 10 0 15 10 15 30 0
28 3 30 35 30 24 0 35 5 35 15 0 12 14 15 65 15 51 0 65 -3 65 -15 0 -8 7 -15
15 -15 8 0 15 7 15 15 0 8 -7 15 -15 15 -8 0 -15 9 -15 20 0 18 -7 20 -65 20
l-65 0 0 30 c0 20 5 30 15 30 10 0 15 10 15 30 0 28 3 30 35 30 24 0 35 -5 35
-15 0 -8 7 -15 15 -15 8 0 15 7 15 15 0 8 -7 15 -15 15 -8 0 -15 9 -15 20 0
18 7 20 65 20 l65 0 0 -35 c0 -24 -5 -35 -15 -35 -8 0 -15 -7 -15 -15 0 -12
-15 -15 -71 -15 -52 0 -70 -3 -67 -12 3 -7 19 -14 36 -16 20 -2 32 -9 32 -18
0 -8 7 -14 15 -14 8 0 15 7 15 15 0 23 22 18 50 -11 22 -24 23 -27 7 -39 -21
-15 -22 -35 -2 -35 8 0 15 -7 15 -15 0 -8 7 -15 15 -15 10 0 15 -11 15 -35 0
-33 2 -35 35 -35 24 0 35 -5 35 -15 0 -8 7 -15 15 -15 8 0 15 7 15 15 0 8 -7
15 -15 15 -8 0 -15 7 -15 16 0 9 -9 18 -20 21 -16 4 -20 14 -20 48 0 34 4 44
20 48 15 4 20 14 20 36 0 21 5 31 15 31 11 0 15 -12 15 -50 0 -38 -4 -50 -15
-50 -8 0 -15 -7 -15 -15 0 -10 10 -15 30 -15 20 0 30 5 30 15 0 8 7 15 15 15
8 0 15 -7 15 -15 0 -8 9 -15 20 -15 16 0 20 -7 20 -35 0 -32 2 -35 30 -35 20
0 30 -5 30 -15 0 -8 7 -15 15 -15 8 0 15 6 15 14 0 7 9 16 21 19 31 8 18 31
-19 35 -20 2 -32 9 -32 18 0 9 -11 14 -30 14 -20 0 -30 5 -30 15 0 8 -9 15
-20 15 -16 0 -20 7 -20 35 0 24 -5 35 -15 35 -10 0 -15 10 -15 30 0 27 -3 30
-30 30 -20 0 -30 -5 -30 -15 0 -8 -7 -15 -15 -15 -9 0 -18 -7 -21 -15 -4 -8
-12 -15 -20 -15 -8 0 -14 7 -14 15 0 8 -7 15 -15 15 -10 0 -15 10 -15 30 0 20
5 30 15 30 8 0 15 -7 15 -15 0 -8 7 -15 15 -15 8 0 15 7 15 15 0 8 -7 15 -15
15 -10 0 -15 11 -15 35 0 24 5 35 15 35 8 0 15 7 15 15 0 8 9 15 20 15 11 0
20 7 20 15 0 8 -9 15 -20 15 -11 0 -20 -7 -20 -15 0 -8 -7 -15 -15 -15 -10 0
-15 10 -15 29 0 26 4 30 32 33 37 4 50 27 19 35 -30 8 -30 63 0 63 17 0 20 5
17 33 -2 20 -8 32 -18 32 -10 0 -16 -12 -18 -32 -2 -21 -9 -33 -18 -33 -9 0
-14 -11 -14 -30 0 -19 -5 -30 -14 -30 -7 0 -16 -9 -19 -20 -8 -33 -27 -23 -27
15 0 25 4 35 16 35 12 0 14 10 12 48 l-3 47 -62 3 -63 3 0 -36 c0 -28 -4 -35
-20 -35 -11 0 -20 6 -20 14 0 8 -7 16 -15 20 -8 3 -15 12 -15 21 0 10 -10 15
-30 15 -23 0 -30 -4 -30 -20z m188 -82 c-3 -66 -21 -86 -26 -30 -2 20 -9 32
-18 32 -8 0 -14 7 -14 15 0 8 7 15 15 15 8 0 15 7 15 15 0 8 7 15 15 15 13 0
15 -11 13 -62z m2 -113 c0 -8 -7 -15 -15 -15 -8 0 -15 7 -15 15 0 8 7 15 15
15 8 0 15 -7 15 -15z m70 0 c0 -8 7 -15 15 -15 8 0 15 -7 15 -15 0 -8 -7 -15
-15 -15 -8 0 -15 7 -15 15 0 8 -7 15 -15 15 -8 0 -15 7 -15 15 0 8 7 15 15 15
8 0 15 -7 15 -15z m-230 -115 c0 -19 -5 -30 -14 -30 -11 0 -16 -14 -18 -47 -3
-46 -4 -48 -35 -51 -28 -3 -33 0 -33 17 0 12 -7 21 -15 21 -8 0 -15 7 -15 15
0 8 -7 15 -15 15 -8 0 -15 7 -15 15 0 8 7 15 15 15 8 0 15 -7 15 -15 0 -8 7
-15 15 -15 8 0 15 -7 15 -15 0 -8 7 -15 15 -15 10 0 15 10 15 30 0 23 4 30 20
30 16 0 20 7 20 30 0 20 5 30 15 30 10 0 15 -10 15 -30z m-260 -275 c0 -8 -7
-15 -15 -15 -9 0 -18 -7 -21 -15 -11 -27 -34 -17 -34 15 0 28 3 30 35 30 24 0
35 -5 35 -15z"/>
<path d="M1817 4684 c-4 -4 -7 -56 -7 -116 l0 -108 115 0 116 0 -3 113 -3 112
-106 3 c-58 1 -108 -1 -112 -4z m183 -114 l0 -80 -80 0 -80 0 0 80 0 80 80 0
80 0 0 -80z"/>
<path d="M1872 4573 l3 -48 45 0 45 0 3 48 3 47 -51 0 -51 0 3 -47z"/>
<path d="M1350 4635 c0 -8 7 -15 15 -15 8 0 15 7 15 15 0 8 -7 15 -15 15 -8 0
-15 -7 -15 -15z"/>
<path d="M1154 4419 c-8 -14 11 -33 25 -25 6 4 11 14 11 22 0 16 -26 19 -36 3z"/>
<path d="M1740 4414 c0 -9 9 -18 20 -21 11 -3 20 -12 20 -19 0 -10 13 -14 45
-14 l45 0 0 -45 c0 -45 0 -45 35 -45 33 0 35 -2 35 -35 0 -32 2 -35 30 -35 20
0 30 -5 30 -15 0 -8 9 -15 20 -15 16 0 20 7 20 30 0 27 -3 30 -29 30 -36 0
-50 19 -28 35 22 16 23 65 2 65 -8 0 -15 -7 -15 -15 0 -8 -7 -15 -15 -15 -10
0 -15 10 -15 30 0 20 -5 30 -15 30 -10 0 -15 11 -15 35 0 25 -4 35 -16 35 -9
0 -18 -9 -21 -20 -4 -13 -14 -20 -30 -20 -16 0 -27 7 -30 20 -7 26 -73 30 -73
4z"/>
<path d="M1972 4398 c3 -29 7 -33 32 -33 34 0 46 20 16 28 -11 3 -20 12 -20
21 0 9 -7 16 -16 16 -11 0 -14 -8 -12 -32z"/>
<path d="M1480 4170 c0 -20 -5 -30 -15 -30 -8 0 -15 7 -15 15 0 8 -7 15 -15
15 -8 0 -15 -7 -15 -15 0 -8 -9 -15 -20 -15 -13 0 -20 -7 -20 -20 0 -16 7 -20
35 -20 24 0 35 -5 35 -15 0 -8 7 -15 15 -15 8 0 15 -7 15 -15 0 -8 6 -15 14
-15 8 0 16 7 20 15 3 9 18 15 36 15 20 0 30 5 30 15 0 8 -7 15 -15 15 -8 0
-15 9 -15 20 0 11 7 20 15 20 8 0 15 7 15 15 0 8 -7 15 -15 15 -8 0 -15 7 -15
15 0 10 -11 15 -35 15 -32 0 -35 -2 -35 -30z m70 -15 c0 -8 -9 -15 -20 -15
-20 0 -26 11 -13 23 12 13 33 7 33 -8z"/>
<path d="M1290 4155 c0 -8 7 -15 16 -15 31 0 10 -35 -24 -38 -31 -3 -32 -5
-32 -48 0 -44 0 -44 35 -44 24 0 35 5 35 15 0 8 -7 15 -15 15 -8 0 -15 7 -15
15 0 8 7 15 15 15 8 0 15 -7 15 -15 0 -8 7 -15 15 -15 10 0 15 -10 15 -30 0
-34 16 -39 36 -12 13 16 15 16 28 0 17 -22 66 -24 66 -3 0 8 -7 15 -15 15 -8
0 -15 7 -15 15 0 8 -7 15 -15 15 -8 0 -15 7 -15 15 0 8 -6 15 -12 15 -16 0
-58 44 -58 59 0 6 -7 11 -15 11 -8 0 -15 7 -15 15 0 8 -7 15 -15 15 -8 0 -15
-7 -15 -15z"/>
<path d="M1610 4155 c0 -8 9 -15 20 -15 16 0 20 -7 20 -31 0 -22 -5 -32 -20
-36 -35 -9 -24 -33 15 -33 24 0 35 5 35 15 0 8 7 15 15 15 8 0 15 -7 15 -15 0
-8 -7 -15 -15 -15 -8 0 -15 -6 -15 -14 0 -9 -12 -16 -32 -18 -37 -3 -48 -23
-18 -31 18 -5 20 -13 20 -86 l0 -81 -35 0 c-24 0 -35 -5 -35 -15 0 -8 -7 -15
-15 -15 -8 0 -15 -7 -15 -15 0 -10 10 -15 30 -15 20 0 30 5 30 15 0 8 9 15 20
15 11 0 20 -7 20 -15 0 -10 10 -15 30 -15 20 0 30 5 30 15 0 8 7 15 15 15 8 0
15 -7 15 -15 0 -8 9 -15 20 -15 11 0 20 7 20 15 0 8 -9 15 -20 15 -11 0 -20 7
-20 15 0 8 -7 15 -15 15 -8 0 -15 -7 -15 -15 0 -10 -10 -15 -30 -15 -20 0 -30
5 -30 15 0 10 10 15 30 15 23 0 30 4 30 20 0 11 -7 20 -15 20 -8 0 -15 7 -15
15 0 8 7 15 15 15 8 0 15 7 15 15 0 8 7 15 15 15 8 0 15 -7 15 -15 0 -8 -7
-15 -15 -15 -8 0 -15 -7 -15 -15 0 -8 7 -15 15 -15 8 0 15 -9 15 -20 0 -15 7
-20 29 -20 36 0 50 19 28 35 -26 19 -20 35 13 35 20 0 30 -5 30 -15 0 -8 6
-15 14 -15 8 0 16 7 20 15 3 8 12 15 21 15 8 0 15 7 15 15 0 8 7 15 15 15 8 0
15 7 15 15 0 8 -7 15 -15 15 -12 0 -15 16 -15 80 0 67 -3 80 -16 80 -9 0 -18
9 -21 20 -4 14 -14 20 -34 20 -22 0 -29 -5 -29 -20 0 -11 7 -20 15 -20 8 0 15
-7 15 -15 0 -8 -7 -15 -15 -15 -8 0 -15 -7 -15 -15 0 -10 -11 -15 -35 -15 -24
0 -35 5 -35 15 0 8 -7 15 -15 15 -8 0 -15 7 -15 15 0 8 -7 15 -15 15 -8 0 -15
6 -15 13 0 15 -44 57 -59 57 -6 0 -11 -7 -11 -15z m130 -165 c0 -49 -1 -50
-30 -50 -28 0 -30 3 -30 35 0 24 5 35 15 35 8 0 15 7 15 15 0 8 7 15 15 15 11
0 15 -12 15 -50z m130 -30 l0 -50 -45 0 -45 0 0 50 0 50 45 0 45 0 0 -50z"/>
<path d="M1810 3960 c0 -11 7 -20 15 -20 8 0 15 9 15 20 0 11 -7 20 -15 20 -8
0 -15 -9 -15 -20z"/>
<path d="M1940 4025 c0 -33 4 -45 15 -45 10 0 15 -11 15 -35 0 -24 5 -35 15
-35 8 0 15 -7 15 -15 0 -11 -12 -15 -45 -15 -44 0 -45 -1 -45 -31 0 -23 -5
-32 -21 -36 -15 -4 -19 -12 -17 -32 3 -28 38 -44 38 -17 0 9 7 16 15 16 8 0
15 -7 15 -15 0 -10 10 -15 30 -15 20 0 30 5 30 15 0 8 9 15 21 15 17 0 20 5
17 32 -4 38 -38 55 -38 19 0 -23 -15 -28 -26 -9 -4 6 0 16 9 23 10 7 17 17 17
24 0 6 9 11 20 11 11 0 20 7 20 15 0 8 -9 15 -20 15 -11 0 -20 7 -20 15 0 8 9
15 20 15 12 0 20 7 20 16 0 9 -9 18 -20 21 -11 3 -20 10 -20 15 0 5 9 12 20
15 35 9 24 33 -15 33 -24 0 -35 5 -35 15 0 8 -7 15 -15 15 -11 0 -15 -12 -15
-45z"/>
<path d="M1550 4010 c0 -21 -5 -30 -16 -30 -9 0 -18 -9 -21 -20 -4 -14 -14
-20 -34 -20 -19 0 -29 -5 -29 -15 0 -10 10 -15 30 -15 20 0 30 -5 30 -15 0
-10 -10 -15 -30 -15 -20 0 -30 5 -30 15 0 8 -7 15 -15 15 -10 0 -15 11 -15 35
0 28 -4 35 -20 35 -13 0 -20 -7 -20 -20 0 -11 -7 -20 -15 -20 -10 0 -15 -10
-15 -30 0 -28 3 -30 35 -30 24 0 35 -5 35 -15 0 -10 -10 -15 -29 -15 -36 0
-50 -19 -28 -35 10 -7 17 -24 17 -39 0 -25 1 -26 65 -26 51 0 65 3 65 15 0 8
-7 15 -15 15 -8 0 -15 7 -15 15 0 8 -7 15 -15 15 -8 0 -15 -7 -15 -15 0 -8 -7
-15 -15 -15 -8 0 -15 7 -15 15 0 8 6 15 14 15 7 0 16 9 19 20 7 28 53 27 60
-1 6 -22 28 -22 35 0 2 7 -5 15 -17 18 -35 9 -25 33 14 33 24 0 35 -5 35 -15
0 -8 7 -15 15 -15 8 0 15 7 15 15 0 8 -7 15 -15 15 -8 0 -15 7 -15 15 0 8 7
15 15 15 8 0 15 7 15 15 0 8 -7 15 -15 15 -11 0 -15 12 -15 50 0 38 -4 50 -15
50 -10 0 -15 -10 -15 -30z m30 -85 c0 -10 -11 -15 -35 -15 -24 0 -35 5 -35 15
0 10 11 15 35 15 24 0 35 -5 35 -15z"/>
<path d="M1097 3974 c-4 -4 -7 -56 -7 -116 l0 -108 115 0 116 0 -3 113 -3 112
-106 3 c-58 1 -108 -1 -112 -4z m193 -114 l0 -80 -85 0 -85 0 0 80 0 80 85 0
85 0 0 -80z"/>
<path d="M1154 3896 c-3 -8 -4 -29 -2 -48 3 -32 5 -33 51 -36 l47 -3 0 50 0
51 -45 0 c-30 0 -47 -5 -51 -14z"/>
<path d="M1810 3765 c0 -8 7 -15 15 -15 8 0 15 7 15 15 0 8 -7 15 -15 15 -8 0
-15 -7 -15 -15z"/>
<path d="M1325 2976 c-21 -15 -25 -67 -5 -90 15 -19 71 -21 88 -4 7 7 12 20
12 30 0 14 -8 18 -32 18 -30 -1 -31 -2 -15 -14 25 -19 21 -28 -10 -24 -22 2
-29 9 -31 29 -4 36 22 57 50 40 24 -15 35 -7 18 14 -15 19 -50 19 -75 1z"/>
<path d="M1440 2980 c0 -5 5 -10 10 -10 6 0 10 5 10 10 0 6 -4 10 -10 10 -5 0
-10 -4 -10 -10z"/>
<path d="M1540 2930 c0 -62 16 -84 22 -28 4 43 26 48 30 7 4 -46 28 -51 28 -6
0 38 -19 61 -44 51 -12 -4 -16 0 -16 15 0 12 -4 21 -10 21 -6 0 -10 -27 -10
-60z"/>
<path d="M1740 2930 l0 -60 35 0 c38 0 58 23 49 58 -6 22 -30 36 -46 26 -5 -3
-12 3 -15 15 -11 41 -23 20 -23 -39z m58 -18 c2 -14 -2 -22 -11 -22 -17 0 -26
19 -19 38 7 19 27 9 30 -16z"/>
<path d="M1482 2963 c-5 -10 -8 -22 -7 -28 2 -5 6 -22 9 -37 4 -16 12 -28 19
-28 11 0 15 50 8 103 -2 13 -20 7 -29 -10z"/>
<path d="M1440 2916 c0 -25 5 -46 10 -46 6 0 10 18 10 39 0 22 -4 43 -10 46
-6 4 -10 -12 -10 -39z"/>
<path d="M1646 2948 c-4 -9 -6 -29 -4 -45 3 -25 7 -28 41 -30 37 -1 37 -1 37
37 0 48 -18 62 -22 18 -5 -50 -36 -51 -40 -1 -3 27 -6 33 -12 21z"/>
<path d="M5065 4759 c-49 -17 -94 -36 -100 -41 -7 -7 -3 -8 10 -5 11 3 45 11
75 17 30 6 69 22 85 35 17 14 28 25 25 25 -3 0 -45 -14 -95 -31z"/>
<path d="M4475 4719 c124 -35 162 -42 181 -35 15 7 7 13 -41 32 -44 17 -79 23
-135 23 l-75 -1 70 -19z"/>
<path d="M4893 4573 c-7 -2 -13 -20 -13 -39 l0 -34 50 0 c48 0 50 1 50 28 0
15 -5 33 -12 40 -12 12 -52 15 -75 5z"/>
<path d="M4903 4479 c-31 -9 -33 -13 -33 -53 0 -64 7 -78 33 -65 12 7 45 9 79
6 l58 -5 0 53 c0 30 -4 56 -9 59 -19 12 -97 15 -128 5z"/>
<path d="M4490 4371 c0 -30 2 -33 23 -27 51 15 85 17 120 8 37 -10 37 -10 31
16 -4 15 -7 28 -8 28 -1 1 -38 4 -83 6 l-83 3 0 -34z"/>
<path d="M4928 4348 c-29 -10 -34 -23 -19 -46 5 -9 26 -12 67 -10 53 3 59 5
56 23 -2 11 -5 22 -7 23 -11 11 -74 17 -97 10z"/>
<path d="M4534 4330 c-17 -6 -20 -15 -16 -35 2 -15 10 -24 17 -21 6 2 37 7 68
11 45 6 57 11 57 25 0 26 -79 39 -126 20z"/>
<path d="M4740 4261 c0 -5 -23 -8 -54 -6 -39 2 -56 -1 -60 -10 -3 -8 0 -15 7
-18 6 -2 3 -6 -7 -10 -15 -6 -17 -3 -12 18 6 23 3 25 -24 25 -16 0 -30 -3 -30
-7 0 -5 -12 -9 -26 -10 -32 -1 -65 -30 -48 -41 16 -9 52 -137 53 -185 0 -20
-4 -48 -9 -61 -12 -33 -2 -70 15 -56 16 13 278 29 486 30 126 0 159 -3 175
-16 18 -15 18 -15 -3 -5 -34 17 -140 14 -147 -4 -4 -12 4 -15 44 -15 31 0 54
-6 64 -16 20 -20 21 -68 1 -84 -9 -8 -15 -9 -15 -2 0 6 5 14 10 17 6 3 10 17
10 31 0 43 -24 46 -305 32 l-260 -13 -3 -36 c-2 -30 2 -39 23 -53 25 -16 45
-17 263 -7 131 6 250 12 267 13 46 4 70 49 73 137 4 87 -7 203 -18 196 -5 -3
-11 24 -15 59 -6 51 -11 66 -29 75 -18 10 -19 11 -1 6 15 -5 17 -3 8 6 -18 18
-118 22 -133 4 -10 -12 -10 -18 0 -30 9 -11 10 -19 3 -26 -10 -10 -12 -5 -16
45 -2 24 -5 25 -72 25 -47 0 -65 -3 -55 -9 12 -8 10 -10 -8 -10 -14 0 -21 4
-17 11 5 7 -12 9 -49 8 -39 -2 -56 -7 -56 -16 0 -7 -5 -13 -11 -13 -5 0 -8 4
-4 9 3 5 1 12 -5 16 -5 3 -10 2 -10 -4z m181 -24 c-10 -9 -11 -8 -5 6 3 10 9
15 12 12 3 -3 0 -11 -7 -18z m75 3 c0 -11 -4 -20 -8 -20 -10 0 -11 24 -1 33 9
9 9 10 9 -13z m68 4 c3 -8 2 -12 -4 -9 -6 3 -10 10 -10 16 0 14 7 11 14 -7z
m-249 -4 c-3 -5 -12 -10 -18 -10 -7 0 -6 4 3 10 19 12 23 12 15 0z m155 -10
c0 -5 -2 -10 -4 -10 -3 0 -8 5 -11 10 -3 6 -1 10 4 10 6 0 11 -4 11 -10z"/>
<path d="M5293 4032 l-21 -37 41 -112 c22 -62 43 -111 45 -109 2 2 -13 52 -34
111 -36 105 -37 107 -20 142 23 48 16 51 -11 5z"/>
<path d="M4556 3884 c-17 -16 -19 -25 -17 -64 2 -27 43 -70 67 -70 11 0 10 6
-6 28 -15 21 -19 36 -14 56 8 33 31 46 83 46 23 0 41 5 41 10 0 17 -136 12
-154 -6z"/>
<path d="M4853 3740 c-127 -4 -186 -9 -195 -18 -15 -15 -24 -358 -13 -480 l7
-73 76 2 c115 2 117 2 120 57 7 120 65 200 161 225 63 16 110 9 153 -23 l28
-21 0 148 c0 118 -3 153 -16 171 -17 25 10 24 -321 12z"/>
<path d="M4521 3690 c0 -8 4 -24 9 -35 5 -13 9 -14 9 -5 0 8 -4 24 -9 35 -5
13 -9 14 -9 5z"/>
<path d="M4542 3615 c0 -11 4 -31 8 -45 6 -20 8 -21 8 -5 0 11 -4 31 -8 45 -6
20 -8 21 -8 5z"/>
<path d="M4561 3524 c0 -11 3 -14 6 -6 3 7 2 16 -1 19 -3 4 -6 -2 -5 -13z"/>
<path d="M4571 3484 c0 -11 3 -14 6 -6 3 7 2 16 -1 19 -3 4 -6 -2 -5 -13z"/>
<path d="M5020 3298 c-43 -47 -35 -95 20 -118 54 -22 110 19 110 80 0 55 -90
81 -130 38z"/>
<path d="M4902 3273 c8 -10 13 -24 11 -31 -4 -9 -11 -6 -24 9 l-19 22 0 -54
c0 -68 24 -109 82 -142 56 -33 105 -41 159 -27 68 18 108 64 123 139 5 27 4
31 -8 22 -11 -9 -12 -6 -8 15 3 19 7 22 13 12 5 -7 9 -8 9 -2 0 12 -21 34 -33
34 -5 0 -6 -7 -3 -16 5 -13 2 -15 -14 -11 -12 3 -20 0 -20 -8 0 -7 -13 -27
-29 -44 -24 -25 -37 -31 -71 -31 -34 0 -47 6 -71 31 -16 17 -29 37 -29 45 0
17 -22 18 -38 2 -7 -7 -12 -9 -12 -5 0 3 10 16 23 28 l22 21 -22 -11 c-13 -6
-23 -8 -23 -2 0 5 -8 12 -17 15 -15 6 -16 5 -1 -11z"/>
<path d="M4637 3143 c-12 -11 -8 -128 5 -141 13 -13 47 -16 72 -6 13 5 16 22
16 80 l0 74 -43 0 c-24 0 -47 -3 -50 -7z"/>
<path d="M4735 2991 c-3 -6 -19 -11 -35 -11 -26 0 -28 -3 -32 -45 -5 -74 7
-103 50 -115 82 -22 83 -22 80 83 -3 91 -3 92 -30 95 -14 2 -29 -2 -33 -7z"/>
<path d="M4817 2993 c-3 -5 -2 -51 0 -105 l6 -96 36 5 c20 3 38 7 40 9 3 3
-30 111 -51 167 -10 27 -22 34 -31 20z"/>
<path d="M4652 2688 c-7 -79 -13 -363 -15 -631 l-4 -489 81 6 c44 4 98 9 119
12 l39 6 -6 42 c-3 22 -5 51 -5 62 -1 21 -3 21 -38 8 -80 -28 -153 -6 -153 45
0 26 8 33 91 76 l92 47 -6 92 c-4 50 -14 237 -23 416 -8 179 -19 345 -23 370
l-6 45 -53 6 c-29 4 -58 12 -66 18 -11 9 -15 -13 -24 -131z"/>
<path d="M5071 2554 c0 -11 3 -14 6 -6 3 7 2 16 -1 19 -3 4 -6 -2 -5 -13z"/>
<path d="M5105 2530 c3 -5 8 -10 11 -10 2 0 4 5 4 10 0 6 -5 10 -11 10 -5 0
-7 -4 -4 -10z"/>
<path d="M4995 2515 c-18 -8 -23 -14 -13 -15 9 0 24 -7 32 -16 9 -8 16 -10 16
-4 0 6 -8 14 -17 17 -14 6 -12 9 12 19 17 7 23 13 15 13 -8 0 -28 -7 -45 -14z"/>
<path d="M4846 2494 c7 -36 10 -40 17 -15 3 11 -1 25 -9 31 -10 9 -12 6 -8
-16z"/>
<path d="M4885 2490 c-20 -22 -13 -39 8 -22 8 7 16 9 20 6 3 -3 3 3 0 15 -7
26 -6 26 -28 1z"/>
<path d="M5100 2506 c0 -2 8 -10 18 -17 15 -13 16 -12 3 4 -13 16 -21 21 -21
13z"/>
<path d="M5166 2497 c3 -10 9 -15 12 -12 3 3 0 11 -7 18 -10 9 -11 8 -5 -6z"/>
<path d="M4930 2475 c0 -8 -7 -15 -15 -15 -8 0 -15 -6 -15 -14 0 -20 -17 -29
-26 -15 -5 8 -3 9 6 4 9 -6 11 -4 5 4 -11 19 -22 2 -30 -46 -5 -35 -4 -42 12
-46 17 -4 17 -5 -1 -6 -18 -1 -18 -9 -12 -173 4 -95 9 -193 11 -218 2 -25 6
-108 10 -185 4 -77 8 -161 10 -186 l4 -47 -57 -6 c-99 -12 -165 -27 -245 -58
-72 -28 -80 -29 -96 -14 -26 24 -34 20 -29 -14 4 -27 -1 -35 -42 -65 -194
-142 -314 -390 -350 -724 -12 -109 -8 -462 6 -554 l6 -37 -111 0 -111 0 0 93
c0 82 2 94 21 105 11 7 29 32 40 55 18 40 19 74 19 647 0 572 -1 610 -20 689
-28 115 -71 193 -155 277 -85 86 -214 154 -337 179 -112 22 -755 22 -798 0
-52 -27 -60 -49 -60 -162 l0 -103 -76 0 c-66 0 -75 -2 -72 -17 3 -15 16 -19
71 -21 l67 -3 0 -54 0 -55 -50 0 c-38 0 -50 -4 -50 -15 0 -12 13 -15 55 -15
l55 0 0 -120 c0 -66 -4 -120 -8 -120 -5 0 -31 7 -58 15 -67 20 -244 20 -315
-1 -186 -54 -361 -247 -469 -515 l-32 -78 -54 44 c-44 37 -138 87 -269 145
-28 13 -139 40 -161 40 -13 0 -31 23 -59 77 -142 277 -444 521 -728 588 -114
27 -270 18 -374 -22 l-43 -16 0 -404 c0 -384 1 -403 18 -394 11 6 24 6 37 -1
31 -17 85 -70 101 -101 13 -25 13 -30 -8 -57 -20 -28 -26 -30 -85 -30 -53 0
-63 -3 -63 -17 0 -16 8 -18 59 -15 l58 4 6 -34 c3 -18 9 -54 13 -80 l6 -48
-33 0 c-19 0 -51 4 -71 9 l-38 9 0 -73 c0 -81 3 -85 83 -85 28 0 37 -4 37 -17
0 -9 -18 -93 -41 -186 -22 -93 -38 -171 -35 -174 18 -19 35 21 68 158 55 230
62 278 55 416 -6 121 -6 122 19 153 42 50 98 73 189 78 64 3 91 0 136 -17 72
-27 93 -49 74 -75 -13 -18 -15 -18 -41 3 -60 47 -96 14 -39 -36 l38 -33 -15
-37 c-9 -21 -32 -76 -52 -123 -64 -156 -111 -389 -92 -464 l6 -26 151 0 c111
0 151 3 153 12 3 7 7 25 10 40 12 55 143 168 195 168 25 0 97 -62 117 -102 13
-26 13 -30 -7 -57 -20 -27 -25 -29 -117 -34 -163 -8 -170 -26 -11 -26 135 -1
136 -1 147 24 17 36 86 82 143 94 122 26 215 4 292 -70 58 -56 98 -68 68 -20
-7 11 7 22 60 47 37 18 89 52 114 75 l46 42 34 -16 c29 -14 35 -22 35 -47 0
-37 -13 -65 -48 -103 l-26 -27 148 0 147 0 17 40 c16 38 19 40 62 40 77 0 89
-7 83 -46 -4 -26 -2 -34 10 -34 19 0 23 11 38 110 7 51 9 112 4 159 -11 115
-8 131 22 164 62 65 199 94 304 64 83 -24 130 -71 167 -164 34 -86 77 -226 88
-286 6 -36 27 -58 41 -44 3 3 -2 38 -12 77 -10 39 -16 72 -14 74 2 1 33 13 69
26 190 67 320 154 364 241 45 91 32 229 -34 376 l-29 63 81 0 c63 0 88 -5 118
-21 69 -39 74 -58 80 -294 5 -223 13 -258 60 -288 18 -11 20 -23 20 -134 l0
-123 139 0 c97 0 141 4 143 12 3 8 46 8 179 0 242 -17 262 -16 174 9 -38 11
-75 25 -82 32 -33 34 -45 468 -17 654 62 418 257 669 585 754 72 18 101 21
209 16 177 -7 306 -48 440 -140 120 -83 248 -250 323 -421 50 -116 56 -122 88
-98 38 30 124 71 172 82 113 25 210 -71 211 -207 0 -97 -52 -193 -171 -311
-51 -52 -93 -100 -93 -107 0 -7 11 -59 24 -114 l24 -101 -494 0 -494 0 0 53
c0 115 -86 179 -318 237 -65 16 -97 19 -104 12 -17 -17 -2 -28 59 -41 174 -37
294 -96 319 -157 19 -44 11 -102 -18 -139 l-19 -25 25 0 c14 0 28 4 31 10 4 7
260 10 736 10 720 0 729 0 729 20 0 19 -8 20 -206 22 l-207 3 -24 103 -25 103
75 74 c114 112 167 197 187 305 19 100 -29 214 -111 266 -38 24 -49 26 -115
22 -59 -4 -84 -11 -139 -42 -37 -20 -69 -36 -70 -34 -2 2 -26 50 -55 108 -29
58 -72 134 -96 168 -25 35 -46 68 -47 74 -1 5 18 16 42 25 24 8 61 26 83 40
l38 26 0 72 c0 39 -2 74 -5 77 -3 3 -28 -6 -57 -20 -53 -25 -174 -51 -242 -52
-26 0 -68 15 -137 50 -54 27 -115 52 -134 56 -44 8 -46 24 -2 24 17 0 49 5 69
10 l37 11 -5 52 c-2 28 -11 194 -20 367 -9 173 -18 324 -19 335 -1 11 -3 26
-4 33 0 8 -6 10 -13 6 -10 -6 -10 -4 0 7 12 13 18 58 6 46 -4 -3 -13 1 -22 9
-18 19 -32 3 -25 -30 l5 -21 -16 22 c-16 22 -42 25 -54 6 -4 -6 -16 -7 -27 -3
-18 7 -18 9 8 19 16 6 34 8 40 4 6 -4 8 0 4 10 -3 10 -2 17 3 17 6 0 10 -7 10
-17 0 -14 2 -14 21 3 11 10 16 20 10 22 -6 2 -11 8 -11 13 0 6 5 7 12 3 7 -4
8 -3 4 4 -9 15 -11 15 -31 -4 -8 -9 -23 -13 -32 -10 -14 6 -14 8 3 21 19 15
19 15 0 8 -12 -4 -17 -3 -13 4 7 11 -29 11 -40 -1 -5 -4 -3 -7 2 -6 22 5 31
-1 32 -21 2 -17 -1 -19 -10 -10 -15 15 -27 14 -27 -4 0 -8 5 -15 11 -15 5 0 7
-4 4 -10 -3 -5 -11 -10 -16 -10 -6 0 -7 5 -3 11 4 8 0 9 -15 4 -13 -4 -21 -2
-21 5 0 6 4 9 9 5 5 -3 12 -1 16 5 3 5 -1 10 -9 10 -8 0 -18 -5 -21 -11 -4 -6
-13 -8 -21 -5 -7 3 -16 1 -19 -4 -10 -16 -28 -12 -22 4 3 8 1 17 -6 20 -9 3
-9 5 1 5 6 1 12 7 12 15 0 8 6 16 14 18 12 3 12 5 0 16 -12 11 -14 10 -14 -3z
m-20 -69 c0 -2 -7 -7 -16 -10 -8 -3 -12 -2 -9 4 6 10 25 14 25 6z m104 -42 c3
-8 2 -12 -4 -9 -6 3 -10 10 -10 16 0 14 7 11 14 -7z m-69 -23 c3 -5 1 -12 -5
-16 -5 -3 -10 1 -10 9 0 18 6 21 15 7z m-1915 -737 l0 -487 -52 50 c-85 80
-176 143 -283 194 l-100 49 75 0 c41 0 81 4 88 9 9 5 12 28 10 77 l-3 69 -82
3 -83 3 0 227 c0 244 3 262 54 282 11 5 101 9 199 9 l177 1 0 -486z m425 461
c169 -46 309 -150 378 -282 72 -138 70 -120 75 -793 2 -402 0 -617 -7 -640 -6
-20 -24 -49 -41 -65 -29 -28 -37 -30 -123 -33 -103 -3 -144 11 -181 61 -19 26
-21 46 -26 240 -4 175 -8 218 -22 243 -40 73 -113 104 -243 104 l-64 0 -32 48
c-18 26 -48 65 -66 88 l-33 41 0 508 0 508 163 -6 c103 -3 184 -11 222 -22z
m-725 -575 l0 -40 -65 0 -65 0 0 40 0 40 65 0 65 0 0 -40z m-1990 -492 c30 -6
58 -12 61 -14 3 -2 -28 -38 -71 -81 -42 -43 -83 -89 -91 -103 l-16 -24 -59 29
c-32 17 -60 30 -61 30 -1 0 7 25 17 55 11 30 19 72 20 93 l0 38 73 -6 c39 -4
97 -11 127 -17z m-240 -30 c0 -24 -9 -62 -20 -86 -18 -40 -22 -43 -49 -37 -37
8 -144 -11 -193 -35 l-38 -18 -20 33 c-11 18 -38 49 -60 69 l-39 35 81 26 c98
31 214 53 286 54 l52 1 0 -42z m2320 -270 c70 -13 150 -47 150 -63 0 -22 -82
-99 -140 -132 -80 -46 -101 -49 -143 -20 -19 13 -49 30 -66 37 -35 14 -36 16
-17 61 8 19 17 58 21 87 l7 53 67 -6 c36 -3 91 -11 121 -17z m-233 -37 c-3
-27 -12 -64 -20 -83 l-15 -35 -75 -1 c-55 0 -91 -7 -135 -25 l-59 -24 -19 35
c-10 19 -36 49 -57 67 -21 18 -35 35 -30 38 42 26 276 75 362 76 l54 1 -6 -49z
m449 -87 c8 -18 14 -43 14 -56 0 -42 -41 -107 -91 -144 -46 -34 -149 -89 -153
-82 -1 2 -14 32 -29 68 -19 45 -24 66 -16 69 30 10 122 62 154 88 19 15 47 45
61 65 30 42 40 41 60 -8z m-873 10 c21 -14 52 -46 67 -71 l29 -46 -22 -27
c-21 -25 -29 -27 -122 -33 -55 -3 -120 -12 -144 -21 -24 -9 -46 -14 -49 -12
-11 12 11 77 39 115 24 34 138 121 159 121 3 0 23 -12 43 -26z m51 -250 c3
-26 6 -63 6 -82 l0 -35 -52 6 c-107 12 -219 61 -226 99 -2 12 8 20 40 29 48
13 134 26 189 28 36 1 36 0 43 -45z m-848 -41 c-4 -21 -14 -59 -22 -85 l-15
-46 -72 0 c-67 -1 -156 -22 -183 -43 -8 -7 -19 1 -34 25 -12 20 -40 51 -62 70
l-40 35 66 20 c58 18 165 42 246 54 14 2 47 5 74 6 l48 1 -6 -37z m215 27 c46
-9 60 -17 96 -58 l41 -47 -26 -28 c-30 -32 -133 -92 -174 -102 -21 -6 -35 -1
-58 18 -16 14 -45 30 -63 36 l-34 11 18 53 c10 28 18 69 19 90 l0 37 64 0 c35
0 88 -5 117 -10z"/>
<path d="M4980 2470 c-8 -5 -10 -10 -5 -10 6 0 17 5 25 10 8 5 11 10 5 10 -5
0 -17 -5 -25 -10z"/>
<path d="M4939 2443 c0 -5 -2 -16 -4 -27 -3 -15 -2 -16 8 -5 7 8 18 20 26 27
13 10 11 12 -7 12 -12 0 -22 -3 -23 -7z"/>
<path d="M4960 2420 c0 -5 5 -10 11 -10 5 0 7 5 4 10 -3 6 -8 10 -11 10 -2 0
-4 -4 -4 -10z"/>
<path d="M5166 2411 c-3 -5 1 -11 9 -15 9 -3 15 0 15 9 0 16 -16 20 -24 6z"/>
<path d="M5106 1141 c-14 -22 76 -66 150 -73 33 -2 39 0 39 17 0 16 -9 21 -45
26 -25 4 -62 14 -84 23 -44 18 -53 19 -60 7z"/>
<path d="M4850 1051 c-11 -22 -38 -60 -60 -86 -42 -49 -47 -60 -29 -71 25 -15
160 159 144 185 -13 22 -35 10 -55 -28z"/>
<path d="M5201 960 c-49 -39 -59 -59 -34 -67 15 -5 115 76 110 90 -7 22 -26
17 -76 -23z"/>
<path d="M5243 876 c-23 -14 -58 -37 -78 -52 -30 -23 -50 -28 -128 -35 -51 -4
-105 -13 -122 -19 -87 -33 -130 -133 -90 -210 75 -145 394 -132 562 23 62 57
86 108 81 168 -12 122 -122 183 -225 125z m-125 -232 c48 -34 68 -115 33 -134
-29 -15 -176 -12 -216 4 -33 14 -34 17 -24 43 32 84 144 131 207 87z"/>
<path d="M4925 866 c-50 -8 -70 -15 -70 -26 0 -12 13 -15 65 -13 83 3 110 10
110 27 0 11 -26 30 -33 25 -1 -1 -33 -7 -72 -13z"/>
<path d="M2567 433 c-13 -12 -7 -22 38 -64 30 -28 52 -60 63 -92 18 -52 38
-69 53 -46 18 30 -28 138 -75 173 -35 27 -69 39 -79 29z"/>
<path d="M1337 46 c-9 -22 26 -46 68 -46 33 0 36 2 24 16 -13 16 -62 44 -77
44 -6 0 -12 -6 -15 -14z"/>
</g>
</svg>
